<svg width="231" height="230" viewBox="0 0 231 230" fill="none" xmlns="http://www.w3.org/2000/svg">
<g filter="url(#filter0_d_2_1101)">
<path d="M38.6586 101.454L37.4511 110.372L4 105.825L6.68185 86.0173L13.9349 87.0032L12.4605 97.893L18.8442 98.7608L20.2037 88.7192L27.4568 89.7051L26.0972 99.7467L38.6586 101.454Z" fill="#F9F9F9"/>
<path d="M14.1751 65.4705C15.4727 62.6901 16.8935 60.5378 18.4375 59.0137C19.9675 57.483 21.617 56.5702 23.386 56.2753C25.1615 55.9664 27.0462 56.2791 29.0402 57.2134C30.2813 57.7949 31.3129 58.5337 32.1352 59.4298C32.9575 60.3259 33.5905 61.3546 34.0341 62.516C34.4703 63.6568 34.7371 64.9057 34.8346 66.2624L52.3248 63.5772L47.943 72.9663L33.7836 74.2494L32.8055 76.3452L43.9329 81.559L40.0695 89.8373L9.49017 75.5093L14.1751 65.4705ZM20.3704 68.5265L19.6075 70.1612L26.5935 73.4345L27.3172 71.8837C27.9106 70.6122 28.1175 69.4406 27.9379 68.3689C27.7583 67.2972 26.9504 66.4249 25.5142 65.7519C24.5242 65.2881 23.5938 65.2608 22.723 65.6701C21.8523 66.0794 21.0681 67.0316 20.3704 68.5265Z" fill="#F9F9F9"/>
<path d="M61.5713 32.1624C63.3839 34.0322 64.8092 35.9563 65.8473 37.9348C66.8858 39.8915 67.4664 41.8851 67.5894 43.9157C67.7123 45.9463 67.3181 47.9857 66.4066 50.034C65.4844 52.0712 63.9854 54.1 61.9096 56.1204C59.8779 58.0978 57.8325 59.5187 55.7734 60.3831C53.7147 61.2257 51.6741 61.5669 49.6516 61.4065C47.6184 61.2351 45.6246 60.6062 43.67 59.5197C41.7154 58.4332 39.8211 56.944 37.987 55.0521C35.5417 52.5296 33.8321 49.9359 32.8584 47.2712C31.8849 44.5847 31.7772 41.8835 32.535 39.1676C33.2822 36.4407 35.0139 33.7554 37.7301 31.1117C40.4906 28.425 43.2308 26.7579 45.9508 26.1103C48.6818 25.452 51.3566 25.6655 53.9752 26.7507C56.5939 27.836 59.1259 29.6399 61.5713 32.1624ZM44.9093 48.3793C46.325 49.8397 47.708 50.9342 49.0581 51.6629C50.4083 52.3916 51.7157 52.6887 52.9805 52.5544C54.2452 52.4202 55.4572 51.7888 56.6166 50.6604C57.8201 49.489 58.5017 48.2773 58.6614 47.0252C58.8321 45.7625 58.5626 44.4551 57.8529 43.1031C57.1542 41.7404 56.097 40.3288 54.6812 38.8684C52.5576 36.6778 50.5147 35.301 48.5525 34.7379C46.5903 34.1749 44.7204 34.7585 42.9427 36.4887C41.7612 37.6386 41.085 38.8558 40.9139 40.1404C40.7539 41.4143 41.0231 42.7435 41.7215 44.128C42.4309 45.5018 43.4935 46.9189 44.9093 48.3793Z" fill="#F9F9F9"/>
<path d="M102.778 33.26L91.612 37.5543L71.5789 19.7335L71.3849 19.8081C71.716 20.4572 72.0923 21.246 72.5138 22.1743C72.9353 23.1025 73.3579 24.0552 73.7816 25.0322C74.1998 25.9948 74.5606 26.8721 74.864 27.6641L80.3163 41.8983L72.7714 44.7998L60.6754 13.221L71.7987 8.94334L91.6729 26.4783L91.8022 26.4286C91.4943 25.754 91.1451 24.9714 90.7545 24.0808C90.3584 23.1757 89.9595 22.2635 89.5579 21.3441C89.1706 20.4192 88.8391 19.5967 88.5633 18.8768L83.0944 4.59934L90.6824 1.68122L102.778 33.26Z" fill="#F9F9F9"/>
<path d="M119.354 33.8874L110.234 33.9579L110.031 7.60684L101.788 7.67062L101.73 0.197916L127.313 -9.94352e-06L127.371 7.47269L119.151 7.53629L119.354 33.8874Z" fill="#F9F9F9"/>
<path d="M128.304 25.516L129.896 18.476L142.62 21.3646L141.028 28.4046L128.304 25.516Z" fill="#F9F9F9"/>
<path d="M158.152 45.8142L139.997 37.3076L154.296 6.66727L172.451 15.1739L169.351 21.8175L159.457 17.182L157.208 22.0023L166.369 26.2948L163.269 32.9384L154.107 28.6459L151.408 34.4303L161.301 39.0658L158.152 45.8142Z" fill="#F9F9F9"/>
<path d="M181.44 67.7605L172.952 59.317L180.958 33.7013L180.81 33.5546C180.355 34.1234 179.791 34.7907 179.119 35.5566C178.447 36.3225 177.753 37.0994 177.038 37.8873C176.333 38.6642 175.683 39.3537 175.086 39.9557L164.366 50.7758L158.631 45.0708L182.414 21.0663L190.869 29.4771L183.059 54.8304L183.157 54.9282C183.645 54.3702 184.214 53.7301 184.864 53.0079C185.526 52.2748 186.192 51.5361 186.865 50.7921C187.548 50.0588 188.16 49.4186 188.703 48.8713L199.456 38.0184L205.224 43.756L181.44 67.7605Z" fill="#F9F9F9"/>
<path d="M208.969 88.5313C205.348 90.0499 202.056 90.6367 199.091 90.2915C196.127 89.9463 193.527 88.796 191.292 86.8408C189.077 84.8939 187.277 82.2628 185.892 78.9477L181.675 68.853L212.815 55.793L217.326 66.592C218.729 69.9497 219.342 73.0365 219.167 75.8523C218.991 78.668 218.049 81.1451 216.339 83.2835C214.635 85.4362 212.178 87.1854 208.969 88.5313ZM205.016 79.9062C206.904 79.1142 208.359 78.203 209.381 77.1727C210.422 76.1506 211.037 75.0065 211.226 73.7402C211.429 72.468 211.209 71.0636 210.567 69.527L209.542 67.0726L192.098 74.3888L192.882 76.2669C193.952 78.8279 195.475 80.3963 197.451 80.9721C199.441 81.5419 201.963 81.1866 205.016 79.9062Z" fill="#F9F9F9"/>
<path d="M204.812 147.498C200.987 146.614 197.971 145.165 195.765 143.152C193.559 141.138 192.117 138.684 191.44 135.789C190.775 132.913 190.846 129.724 191.652 126.222L194.106 115.559L227 123.159L224.375 134.566C223.559 138.113 222.259 140.979 220.477 143.163C218.695 145.347 216.487 146.808 213.853 147.545C211.215 148.297 208.202 148.281 204.812 147.498ZM206.624 138.182C208.619 138.643 210.331 138.753 211.761 138.514C213.202 138.293 214.367 137.723 215.258 136.805C216.164 135.89 216.803 134.622 217.177 132.998L217.773 130.406L199.346 126.148L198.89 128.132C198.267 130.837 198.59 133.001 199.86 134.624C201.144 136.251 203.399 137.437 206.624 138.182Z" fill="#F9F9F9"/>
<path d="M176.158 160.999L186.604 143.861L215.413 161.491L204.967 178.63L198.72 174.807L204.413 165.468L199.881 162.694L194.609 171.342L188.363 167.519L193.634 158.871L188.195 155.543L182.503 164.882L176.158 160.999Z" fill="#F9F9F9"/>
<path d="M176.559 206.067L162.734 173.279L170.832 166.215L201.305 184.479L193.573 191.225L178.873 181.318C178.321 180.94 177.63 180.439 176.8 179.813C175.969 179.209 175.155 178.589 174.359 177.955C173.551 177.33 172.922 176.795 172.473 176.348C172.841 176.866 173.285 177.552 173.804 178.408C174.323 179.264 174.831 180.13 175.326 181.006C175.821 181.904 176.211 182.658 176.496 183.268L184.256 199.352L176.559 206.067Z" fill="#F9F9F9"/>
<path d="M136.276 187.108L154.706 179.216L167.972 210.319L149.543 218.211L146.666 211.467L156.709 207.167L154.622 202.273L145.322 206.256L142.446 199.512L151.746 195.529L149.241 189.658L139.198 193.958L136.276 187.108Z" fill="#F9F9F9"/>
<path d="M135.501 187.308L139.653 220.876L130.602 222L127.356 195.756L114.455 197.359L113.549 190.034L135.501 187.308Z" fill="#F9F9F9"/>
<path d="M79.239 200.398C79.8042 197.854 80.6273 195.604 81.7082 193.649C82.7707 191.705 84.1153 190.124 85.742 188.907C87.3686 187.69 89.2864 186.901 91.4955 186.54C93.7012 186.195 96.2165 186.337 99.0413 186.967C101.806 187.583 104.114 188.517 105.965 189.767C107.798 191.029 109.202 192.551 110.179 194.333C111.151 196.13 111.721 198.146 111.887 200.379C112.053 202.613 111.85 205.017 111.279 207.591C110.516 211.024 109.29 213.879 107.602 216.157C105.895 218.447 103.7 220.019 101.018 220.875C98.3333 221.746 95.1426 221.769 91.4463 220.945C87.6899 220.107 84.7952 218.727 82.7622 216.804C80.7142 214.877 79.4244 212.52 78.8927 209.731C78.3611 206.942 78.4765 203.831 79.239 200.398ZM101.913 205.455C102.354 203.468 102.508 201.708 102.375 200.178C102.242 198.647 101.773 197.389 100.967 196.403C100.16 195.417 98.9685 194.749 97.3908 194.397C95.753 194.031 94.3681 194.125 93.2359 194.679C92.0886 195.229 91.1458 196.172 90.4074 197.509C89.6539 198.842 89.0564 200.502 88.615 202.489C87.9528 205.47 87.9252 207.937 88.5323 209.89C89.1394 211.842 90.6525 213.088 93.0717 213.628C94.6794 213.986 96.0661 213.885 97.2317 213.323C98.3822 212.758 99.3434 211.803 100.115 210.458C100.872 209.11 101.471 207.442 101.913 205.455Z" fill="#F9F9F9"/>
<path d="M54.9245 205.056C51.3395 202.715 49.1658 200.181 48.4033 197.455C47.6279 194.721 48.1775 191.913 50.052 189.032C50.8925 187.74 51.8865 186.621 53.0338 185.677C54.1682 184.724 55.4571 184.056 56.9006 183.673C58.3311 183.282 59.9128 183.265 61.6457 183.624C63.3657 183.974 65.2315 184.806 67.2432 186.12L69.3903 187.522L75.5055 178.122L83.1462 183.112L64.7122 211.449L54.9245 205.056ZM59.1208 198.987L61.0938 200.276L65.3303 193.763L63.8215 192.778C63.1639 192.348 62.4799 192.058 61.7696 191.907C61.0509 191.769 60.3599 191.843 59.6968 192.127C59.0124 192.417 58.3928 192.988 57.838 193.841C57.258 194.732 57.0517 195.629 57.2189 196.53C57.3778 197.443 58.0117 198.263 59.1208 198.987Z" fill="#F9F9F9"/>
<path d="M49.346 153.348L62.2292 168.732L36.3699 190.475L23.4867 175.091L29.0937 170.377L36.1141 178.76L40.1823 175.339L33.6814 167.576L39.2883 162.862L45.7893 170.625L50.671 166.52L43.6506 158.137L49.346 153.348Z" fill="#F9F9F9"/>
<path d="M13.3803 155.85C12.1976 153.019 11.5618 150.518 11.4731 148.348C11.3701 146.184 11.8041 144.347 12.775 142.836C13.7399 141.311 15.2376 140.123 17.2682 139.271C18.5319 138.741 19.7713 138.472 20.9862 138.464C22.201 138.457 23.3867 138.678 24.5431 139.13C25.6794 139.573 26.7816 140.214 27.8498 141.053L37.6197 126.271L41.6137 135.833L33.0461 147.201L33.9377 149.335L45.2689 144.583L48.7905 153.013L17.6507 166.073L13.3803 155.85ZM19.8024 153.307L20.4977 154.972L27.6117 151.988L26.952 150.409C26.4111 149.114 25.6844 148.173 24.7717 147.586C23.859 146.999 22.6713 147.013 21.2088 147.626C20.2006 148.049 19.5552 148.721 19.2725 149.642C18.9898 150.563 19.1664 151.785 19.8024 153.307Z" fill="#F9F9F9"/>
</g>
<defs>
<filter id="filter0_d_2_1101" x="0" y="-1.14441e-05" width="231" height="230" filterUnits="userSpaceOnUse" color-interpolation-filters="sRGB">
<feFlood flood-opacity="0" result="BackgroundImageFix"/>
<feColorMatrix in="SourceAlpha" type="matrix" values="0 0 0 0 0 0 0 0 0 0 0 0 0 0 0 0 0 0 127 0" result="hardAlpha"/>
<feOffset dy="4"/>
<feGaussianBlur stdDeviation="2"/>
<feComposite in2="hardAlpha" operator="out"/>
<feColorMatrix type="matrix" values="0 0 0 0 0 0 0 0 0 0 0 0 0 0 0 0 0 0 0.25 0"/>
<feBlend mode="normal" in2="BackgroundImageFix" result="effect1_dropShadow_2_1101"/>
<feBlend mode="normal" in="SourceGraphic" in2="effect1_dropShadow_2_1101" result="shape"/>
</filter>
</defs>
</svg>
